Coordinates
version=1
nRows=19
nColumns=24
inDegrees=yes

Units are S.I. units (second, meters, Newtons, ...)
Angles are in degrees.

endheader
time	pelvis_tilt	pelvis_list	pelvis_rotation	pelvis_tx	pelvis_ty	pelvis_tz	hip_flexion_r	hip_adduction_r	hip_rotation_r	knee_angle_r	ankle_angle_r	subtalar_angle_r	mtp_angle_r	hip_flexion_l	hip_adduction_l	hip_rotation_l	knee_angle_l	ankle_angle_l	subtalar_angle_l	mtp_angle_l	lumbar_extension	lumbar_bending	lumbar_rotation
      2.68000000	      4.73137632	     -3.85332469	      4.59634043	      0.32091140	      1.02385086	      0.04677391	     -0.67304718	      5.82655852	     -5.22078125	     -5.72432441	      5.88930356	      1.26864202	      9.61083570	     17.61902351	    -10.55248323	     -9.07075452	    -64.48975569	      6.42151720	     -4.70747477	     28.82304189	    -18.04816188	      7.60546907	      3.63085380
      2.68500000	      4.91862160	     -3.81143024	      4.38836529	      0.32569712	      1.02431767	      0.04727155	     -1.29669053	      5.83215950	     -5.15047296	     -5.51918764	      6.11598342	      1.54798283	      9.42155502	     17.83011804	    -10.55619118	     -9.36411507	    -64.05967484	      6.63833565	     -4.29811377	     28.60338974	    -18.29478276	      7.50788631	      3.86254702
      2.69000000	      5.01763842	     -3.76054617	      4.16715426	      0.33050998	      1.02464802	      0.04776118	     -1.80529630	      5.81070053	     -5.12442828	     -5.35945595	      6.42899500	      1.95769209	      8.16309657	     18.11096224	    -10.54122390	     -9.66951499	    -63.58342475	      7.02480423	     -3.80690954	     27.21289471	    -18.43864754	      7.39016016	      4.06215337
      2.69500000	      5.08616179	     -3.72959462	      3.92147626	      0.33527319	      1.02488449	      0.04829016	     -2.26717152	      5.80854856	     -5.01474649	     -5.20850978	      6.60453866	      2.17603198	      8.15764031	     18.41425249	    -10.55014735	     -9.97314640	    -63.05644919	      7.22648845	     -3.45072326	     27.27127574	    -18.55260564	      7.28373574	      4.29930230
      2.70000000	      5.27780450	     -3.68709777	      3.69705505	      0.34007972	      1.02527321	      0.04876063	     -2.88184302	      5.79832069	     -4.92032813	     -5.02832127	      6.80547334	      2.43049069	      8.11145303	     18.55186967	    -10.54473614	    -10.26228133	    -62.45175026	      7.38483178	     -3.13815397	     27.27382931	    -18.79771665	      7.17747376	      4.53069591
      2.70500000	      5.37850385	     -3.64783545	      3.45785572	      0.34489679	      1.02551084	      0.04922910	     -3.37739215	      5.77747272	     -4.83718404	     -4.88586403	      6.98168620	      2.68753748	      8.07848988	     18.76609598	    -10.53488353	    -10.55203162	    -61.79878572	      7.57265234	     -2.82878347	     27.27113869	    -18.93654580	      7.06615484	      4.74643580
      2.71000000	      5.57670060	     -3.61665749	      3.25057007	      0.34973506	      1.02584358	      0.04962378	     -3.99967012	      5.76953482	     -4.75450938	     -4.70402041	      7.18256993	      2.93281770	      7.96925560	     18.86221118	    -10.51938591	    -10.79197837	    -61.09678891	      7.71206619	     -2.56406611	     27.17202412	    -19.17791921	      6.97764978	      4.94363491
      2.71500000	      5.71040718	     -3.57193153	      3.01655818	      0.35455078	      1.02607995	      0.05003464	     -4.52706030	      5.73447403	     -4.64978765	     -4.57071501	      7.38923583	      3.18212570	      7.87275803	     18.99838768	    -10.48466758	    -11.04243605	    -60.33684014	      7.85959869	     -2.28110803	     27.07719592	    -19.34895113	      6.86273042	      5.16140652
      2.72000000	      5.86357170	     -3.52924886	      2.79749013	      0.35938776	      1.02630089	      0.05040556	     -5.08156487	      5.69978074	     -4.54946866	     -4.42515833	      7.58918509	      3.40612979	      7.74256357	     19.09589588	    -10.44356007	    -11.26907566	    -59.53074649	      7.99736030	     -2.01909727	     26.93842644	    -19.53626981	      6.75472903	      5.35248811
      2.72500000	      5.96629887	     -3.48034395	      2.57282642	      0.36422516	      1.02642333	      0.05076537	     -5.56431399	      5.65172166	     -4.45901716	     -4.31109017	      7.78195661	      3.59508761	      7.65752864	     19.22664207	    -10.38681505	    -11.48419367	    -58.67775658	      8.13351949	     -1.74492857	     26.84884786	    -19.66447407	      6.63543016	      5.53008998
      2.73000000	      6.17436078	     -3.44562582	      2.40320324	      0.36908935	      1.02664158	      0.05100800	     -6.17690850	      5.61914267	     -4.43354042	     -4.17766300	      8.13801249	      3.95686710	      6.39215786	     19.23845405	    -10.31950428	    -11.62235047	    -57.79581050	      8.38603531	     -1.41787602	     25.58051503	    -19.90136762	      6.55391129	      5.66788001
      2.73500000	      6.28734929	     -3.41208554	      2.16905676	      0.37388181	      1.02673124	      0.05132735	     -6.66704012	      5.57831823	     -4.24978919	     -4.06164058	      8.31184016	      4.04784675	      6.34139745	     19.32424896	    -10.26162405	    -11.79624357	    -56.85504813	      8.44598908	     -1.19292621	     25.58588059	    -20.04345208	      6.45170719	      5.86910256
      2.74000000	      6.45216620	     -3.35921816	      1.96867828	      0.37874263	      1.02685804	      0.05158283	     -7.22500989	      5.51780189	     -4.13238464	     -3.93230155	      8.50650765	      4.19885780	      6.26137294	     19.32759277	    -10.16857513	    -11.94308309	    -55.85836056	      8.50533284	     -0.99501118	     25.54710010	    -20.23004673	      6.33693515	      6.02035125
      2.74500000	      6.60369178	     -3.30531918	      1.77592685	      0.38360722	      1.02694700	      0.05180433	     -7.76508255	      5.45261974	     -4.02042257	     -3.80932077	      8.70658885	      4.33636891	      6.14700596	     19.32773510	    -10.06068262	    -12.06280471	    -54.81804378	      8.54823701	     -0.81831367	     25.47207352	    -20.39946706	      6.22396156	      6.15495076
      2.75000000	      6.74159073	     -3.25762384	      1.59452892	      0.38844483	      1.02697246	      0.05198799	     -8.27897275	      5.39120012	     -3.89703770	     -3.70394379	      8.90891717	      4.44305199	      6.01353813	     19.33418530	     -9.94485070	    -12.14461437	    -53.74529738	      8.57310149	     -0.64684659	     25.37926027	    -20.55417646	      6.12084530	      6.28256475
      2.75500000	      6.88233521	     -3.20309161	      1.41991847	      0.39331888	      1.02699306	      0.05214354	     -8.80401004	      5.32114092	     -3.77806968	     -3.58615236	      9.11273634	      4.53876809	      5.84487656	     19.31198816	     -9.81192722	    -12.21221622	    -52.62304698	      8.57844922	     -0.50302841	     25.26359021	    -20.70538497	      6.01217319	      6.39215809
      2.76000000	      7.05551228	     -3.14429829	      1.32080164	      0.39824313	      1.02700855	      0.05219484	     -9.37470082	      5.25804079	     -3.77234906	     -3.45567503	      9.35883518	      4.67755828	      5.10104220	     19.25173617	     -9.64609403	    -12.19138001	    -51.46974736	      8.62705577	     -0.27593037	     24.87647542	    -20.87827565	      5.91971991	      6.41728171
      2.76500000	      7.13102171	     -3.09103195	      1.10461720	      0.40308842	      1.02688561	      0.05235862	     -9.81019347	      5.17519747	     -3.55148201	     -3.36900629	      9.58587072	      4.70335468	      4.95586402	     19.25940542	     -9.50904573	    -12.26758284	    -50.27612188	      8.55191020	     -0.23312863	     24.79156945	    -20.95996731	      5.79974159	      6.57023054
      2.77000000	      7.25659720	     -3.03268364	      0.96373393	      0.40797419	      1.02679372	      0.05241732	    -10.31541376	      5.10008469	     -3.43432695	     -3.25546652	      9.78192810	      4.72273087	      4.78891454	     19.20591846	     -9.33864257	    -12.25526409	    -49.04255240	      8.48731994	     -0.12400438	     24.71417484	    -21.08657912	      5.69646959	      6.63870153
